<svg fill="#c4c4c4" height="98px" width="98px" version="1.1" id="Layer_1" xmlns="http://www.w3.org/2000/svg" xmlns:xlink="http://www.w3.org/1999/xlink" viewBox="-51.2 -51.2 614.40 614.40" xml:space="preserve" stroke="#c4c4c4" stroke-width="0.00512"><g id="SVGRepo_bgCarrier" stroke-width="0"><rect x="-51.2" y="-51.2" width="614.40" height="614.40" rx="307.2" fill="#a8a8a8" strokewidth="0"></rect></g><g id="SVGRepo_tracerCarrier" stroke-linecap="round" stroke-linejoin="round"></g><g id="SVGRepo_iconCarrier"> <g> <g> <path d="M256,0C114.842,0,0,114.842,0,256s114.842,256,256,256s256-114.842,256-256S397.158,0,256,0z M256,482.743 C130.974,482.743,29.257,381.026,29.257,256S130.974,29.257,256,29.257S482.743,130.974,482.743,256S381.026,482.743,256,482.743z "></path> </g> </g> <g> <g> <path d="M266.243,416.5c-8.079,0-14.629,6.557-14.629,14.636c0,8.079,6.549,14.629,14.629,14.629s14.629-6.551,14.629-14.629 v-0.013C280.872,423.044,274.322,416.5,266.243,416.5z"></path> </g> </g> <g> <g> <path d="M432.599,248.117c-8.079,0-14.629,6.551-14.629,14.629c0,67.634-43.33,126.623-107.82,146.785 c-7.711,2.411-12.007,10.617-9.598,18.328c1.956,6.257,7.73,10.268,13.959,10.268c1.445,0,2.917-0.217,4.37-0.672 c36.421-11.385,69.114-34.578,92.058-65.302c23.741-31.791,36.289-69.625,36.289-109.407 C447.228,254.667,440.678,248.117,432.599,248.117z"></path> </g> </g> <g> <g> <path d="M366.387,229.945v0.001l-168.05-99.673c-9.484-5.625-20.865-5.723-30.444-0.266c-9.58,5.455-15.299,15.296-15.299,26.32 v199.345c0,11.024,5.72,20.865,15.299,26.32c4.71,2.684,9.855,4.023,14.997,4.023c5.315,0,10.626-1.432,15.446-4.291 l168.05-99.672c9.292-5.51,14.839-15.249,14.839-26.052C381.226,245.197,375.679,235.457,366.387,229.945z M351.465,256.888 L183.413,356.56c-0.206,0.124-0.518,0.307-1.039,0.01c-0.522-0.297-0.522-0.66-0.522-0.898V156.327c0-0.238,0-0.601,0.522-0.898 c0.208-0.119,0.382-0.159,0.53-0.159c0.222,0,0.385,0.095,0.509,0.168l168.052,99.673v0.001c0.189,0.111,0.506,0.3,0.506,0.888 C351.969,256.587,351.653,256.775,351.465,256.888z"></path> </g> </g> </g></svg>